<?xml version="1.0"?>
<svg xmlns="http://www.w3.org/2000/svg" xmlns:xlink="http://www.w3.org/1999/xlink" xmlns:svgjs="http://svgjs.com/svgjs" version="1.1" width="512" height="512" x="0" y="0" viewBox="0 0 512 512" style="enable-background:new 0 0 512 512" xml:space="preserve" class=""><g><g xmlns="http://www.w3.org/2000/svg"><g><g><g><g><g><g><circle cx="256" cy="256" fill="#aef3e7" r="256" data-original="#ff6c52" style="" class=""/></g></g></g></g></g></g><path d="m509.536 291.657-74.536-74.536-358 159.471 130.895 130.896c15.581 2.961 31.662 4.512 48.105 4.512 129.285 0 236.186-95.836 253.536-220.343z" fill="#aef3e7" data-original="#f92814" style="" class=""/><g><path d="m435 376.592h-70.837l-108.519-17.088-107.807 17.088h-70.837v-159.472l178.644-113.829 179.356 113.829z" fill="#e9edf5" data-original="#e9edf5" style="" class=""/></g><g><path d="m255.644 359.56v-.057l108.519 17.089h70.837v-159.471l-179.356-113.83z" fill="#cdd2e1" data-original="#cdd2e1" style="" class=""/></g><g><path d="m364.163 376.592h-19.765l-88.754-12.039-88.042 12.039h-19.765v-152.617h216.326z" fill="#636978" data-original="#636978" style="" class=""/></g><g><path d="m255.644 223.975v140.68l88.754 11.937h19.765v-152.617z" fill="#414952" data-original="#414952" style="" class=""/></g><g><g><path d="m167.602 320.843h60.38v55.749h-60.38z" fill="#ffce00" data-original="#ffce00" style="" class=""/></g><g><path d="m284.018 320.843h60.38v55.749h-60.38z" fill="#fdba12" data-original="#fdba12" style="" class=""/></g></g><g><path d="m225.81 265.094h60.38v55.749h-60.38z" fill="#ffce00" data-original="#ffce00" style="" class=""/></g><g><path d="m255.644 265.094h30.546v55.749h-30.546z" fill="#fdba12" data-original="#fdba12" style="" class=""/></g><g><path d="m225.81 320.843h60.38v55.749h-60.38z" fill="#ffb600" data-original="#ffb600" style=""/></g><g><path d="m255.644 320.843h30.546v55.749h-30.546z" fill="#ff9500" data-original="#ff9500" style="" class=""/></g><g><path d="m219.729 172.282h72.543v25.629h-72.543z" fill="#bec3d2" data-original="#bec3d2" style=""/></g><g><path d="m255.644 172.282h36.627v25.629h-36.627z" fill="#9196aa" data-original="#9196aa" style=""/></g></g></g></svg>
